<?xml version="1.0" encoding="UTF-8" standalone="no"?>
<svg
   xmlns:dc="http://purl.org/dc/elements/1.1/"
   xmlns:cc="http://creativecommons.org/ns#"
   xmlns:rdf="http://www.w3.org/1999/02/22-rdf-syntax-ns#"
   xmlns:svg="http://www.w3.org/2000/svg"
   xmlns="http://www.w3.org/2000/svg"
   xmlns:sodipodi="http://sodipodi.sourceforge.net/DTD/sodipodi-0.dtd"
   xmlns:inkscape="http://www.inkscape.org/namespaces/inkscape"
   width="297mm"
   height="420mm"
   viewBox="0 -420 1052.3622 1488.189"
   version="1.1"
   id="svg2"
   inkscape:version="0.91 r13725"
   sodipodi:docname="A3-laser-battery-charger-portrait.svg">
  <metadata
     id="metadata12">
    <rdf:RDF>
      <cc:Work
         rdf:about="">
        <dc:format>image/svg+xml</dc:format>
        <dc:type
           rdf:resource="http://purl.org/dc/dcmitype/StillImage" />
        <dc:title>OpenSCAD Model</dc:title>
      </cc:Work>
    </rdf:RDF>
  </metadata>
  <defs
     id="defs10" />
  <sodipodi:namedview
     pagecolor="#ffffff"
     bordercolor="#666666"
     borderopacity="1"
     objecttolerance="10"
     gridtolerance="10"
     guidetolerance="10"
     inkscape:pageopacity="0"
     inkscape:pageshadow="2"
     inkscape:window-width="1732"
     inkscape:window-height="1092"
     id="namedview8"
     showgrid="false"
     units="mm"
     inkscape:zoom="0.56190476"
     inkscape:cx="842.44755"
     inkscape:cy="779.49152"
     inkscape:window-x="0"
     inkscape:window-y="0"
     inkscape:window-maximized="0"
     inkscape:current-layer="svg2" />
  <title
     id="title4">OpenSCAD Model</title>
  <path
     d="m 1051.4777,1067.3044 -1050.59314436,0 0,-1486.41989 1050.59314436,0 z m -1025.290644,-65.3176 -3.5021,5.4502 0,6.4836 3.5021,5.4502 5.8925,2.6933 6.4117,-0.9237 4.8957,-4.2434 1.8249,-6.2182 -1.8249,-6.2182 -4.8957,-4.2433 -6.4117,-0.92378 z m 328.310164,0 -3.50197,5.4502 0,6.4836 3.50197,5.4502 5.89182,2.6933 6.41319,-0.9237 4.89571,-4.2434 1.82526,-6.2182 -1.82526,-6.2182 -4.89571,-4.2433 -6.41319,-0.92378 z m 328.31066,0 -3.50197,5.4502 0,6.4836 3.50197,5.4502 5.89323,2.6933 6.40969,-0.9237 4.89568,-4.2434 1.82529,-6.2182 -1.82529,-6.2182 -4.89568,-4.2433 -6.40969,-0.92378 z m 328.30862,0 -3.502,5.4502 0,6.4836 3.502,5.4502 5.8932,2.6933 6.4132,-0.9237 4.8958,-4.2434 1.8253,-6.2182 -1.8253,-6.2182 -4.8958,-4.2433 -6.4132,-0.92378 z m -546.83901,-182.41908 0,3.5391 21.22407,0 0,-3.5391 z m 100.81445,0 0,3.5391 21.22412,0 0,-3.5391 z m -201.62894,0 0,3.5391 21.22407,0 0,-3.5391 z m 302.44343,0 0,3.5391 21.22412,0 0,-3.5391 z m -604.886874,0 0,3.5391 21.2241,0 0,-3.5391 z m 201.629004,0 0,3.5391 21.22406,0 0,-3.5391 z m 504.07236,0 0,3.5391 21.22405,0 0,-3.5391 z m -604.88686,0 0,3.5391 21.2241,0 0,-3.5391 z m 806.51581,0 0,3.5391 21.2241,0 0,-3.5391 z m -100.8145,0 0,3.5391 21.2241,0 0,-3.5391 z m -705.70131,-7.0782 0,3.5391 21.2241,0 0,-3.5391 z m 705.70131,0 0,3.5391 21.2241,0 0,-3.5391 z m -100.81445,0 0,3.5391 21.22405,0 0,-3.5391 z m -302.44343,0 0,3.5391 21.22407,0 0,-3.5391 z m -201.62893,0 0,3.5391 21.22406,0 0,-3.5391 z m -201.629004,0 0,3.5391 21.2241,0 0,-3.5391 z m 604.886874,0 0,3.5391 21.22412,0 0,-3.5391 z m -302.44343,0 0,3.5391 21.22407,0 0,-3.5391 z m 201.62894,0 0,3.5391 21.22412,0 0,-3.5391 z m 403.25793,0 0,3.5391 21.2241,0 0,-3.5391 z m -626.11099,-258.35395 0,247.73665 65.44099,0 0,-247.73665 z m -201.62892,0 0,247.73665 65.441,0 0,-247.73665 z m 504.07239,0 0,247.73665 65.44095,0 0,-247.73665 z m 100.81445,0 0,247.73665 65.44097,0 0,-247.73665 z m -302.44343,0 0,247.73665 65.44098,0 0,-247.73665 z m -201.62891,0 0,247.73665 65.44092,0 0,-247.73665 z m -201.629004,0 0,247.73665 65.441004,0 0,-247.73665 z m 806.515814,0 0,247.73665 65.441,0 0,-247.73665 z m 100.8145,0 0,247.73665 65.44103,0 0,-247.73665 z m -403.25791,0 0,247.73665 65.44099,0 0,-247.73665 z m 21.22408,-10.61727 0,3.53909 21.22412,0 0,-3.53909 z m -504.072384,0 0,3.53909 21.2241,0 0,-3.53909 z m 806.515814,0 0,3.53909 21.2241,0 0,-3.53909 z m -705.70131,0 0,3.53909 21.2241,0 0,-3.53909 z m 302.44343,0 0,3.53909 21.22407,0 0,-3.53909 z m 201.62894,0 0,3.53909 21.22412,0 0,-3.53909 z m 302.44344,0 0,3.53909 21.2241,0 0,-3.53909 z m -604.88687,0 0,3.53909 21.22407,0 0,-3.53909 z m 403.25792,0 0,3.53909 21.22405,0 0,-3.53909 z m -504.07236,0 0,3.53909 21.22406,0 0,-3.53909 z m 604.88681,-7.07819 0,3.53908 21.2241,0 0,-3.53908 z m -705.70131,0 0,3.53908 21.2241,0 0,-3.53908 z m 604.88686,0 0,3.53908 21.22405,0 0,-3.53908 z m -504.07236,0 0,3.53908 21.22406,0 0,-3.53908 z m 403.25787,0 0,3.53908 21.22412,0 0,-3.53908 z m -302.44343,0 0,3.53908 21.22407,0 0,-3.53908 z m 201.62894,0 0,3.53908 21.22412,0 0,-3.53908 z m -100.81445,0 0,3.53908 21.22407,0 0,-3.53908 z m 504.07238,0 0,3.53908 21.2241,0 0,-3.53908 z m -907.330314,0 0,3.53908 21.2241,0 0,-3.53908 z m 950.096944,-44.08297 -3.502,5.4502 0,6.48362 3.502,5.45021 5.8932,2.69325 6.4132,-0.9237 4.8958,-4.24337 1.8253,-6.21819 -1.8253,-6.2182 -4.8958,-4.24337 -6.4132,-0.92372 z m -328.30862,0 -3.50197,5.4502 0,6.48362 3.50197,5.45021 5.89323,2.69325 6.40969,-0.9237 4.89568,-4.24337 1.82529,-6.21819 -1.82529,-6.2182 -4.89568,-4.24337 -6.40969,-0.92372 z m -328.31066,0 -3.50197,5.4502 0,6.48362 3.50197,5.45021 5.89182,2.69325 6.41319,-0.9237 4.89571,-4.24337 1.82526,-6.21819 -1.82526,-6.2182 -4.89571,-4.24337 -6.41319,-0.92372 z m -328.310164,0 -3.5021,5.4502 0,6.48362 3.5021,5.45021 5.8925,2.69325 6.4117,-0.9237 4.8957,-4.24337 1.8249,-6.21819 -1.8249,-6.2182 -4.8957,-4.24337 -6.4117,-0.92372 z m 34.8325,-97.48083 0,3.53909 21.2241,0 0,-3.53909 z m 806.515814,0 0,3.53909 21.2241,0 0,-3.53909 z m 100.8145,0 0,3.53909 21.2241,0 0,-3.53909 z m -806.51581,0 0,3.53909 21.2241,0 0,-3.53909 z m 604.88686,0 0,3.53909 21.22405,0 0,-3.53909 z m -504.07236,0 0,3.53909 21.22406,0 0,-3.53909 z m 403.25787,0 0,3.53909 21.22412,0 0,-3.53909 z m -302.44343,0 0,3.53909 21.22407,0 0,-3.53909 z m 201.62894,0 0,3.53909 21.22412,0 0,-3.53909 z m -100.81445,0 0,3.53909 21.22407,0 0,-3.53909 z m -302.44343,-7.07818 0,3.53909 21.2241,0 0,-3.53909 z m 705.70131,0 0,3.53909 21.2241,0 0,-3.53909 z m -100.81445,0 0,3.53909 21.22405,0 0,-3.53909 z m -504.07236,0 0,3.53909 21.22406,0 0,-3.53909 z m -201.629004,0 0,3.53909 21.2241,0 0,-3.53909 z m 604.886874,0 0,3.53909 21.22412,0 0,-3.53909 z m -302.44343,0 0,3.53909 21.22407,0 0,-3.53909 z m 604.88687,0 0,3.53909 21.2241,0 0,-3.53909 z m -403.25793,0 0,3.53909 21.22412,0 0,-3.53909 z m -100.81445,0 0,3.53909 21.22407,0 0,-3.53909 z M 342.23888,129.4442 l 0,247.73663 65.44099,0 0,-247.73663 z m -201.62892,0 0,247.73663 65.441,0 0,-247.73663 z m 302.44341,0 0,247.73663 65.44098,0 0,-247.73663 z m -201.62891,0 0,247.73663 65.44092,0 0,-247.73663 z m -201.629004,0 0,247.73663 65.441004,0 0,-247.73663 z m 806.515814,0 0,247.73663 65.441,0 0,-247.73663 z m -302.44341,0 0,247.73663 65.44099,0 0,-247.73663 z m 403.25791,0 0,247.73663 65.44103,0 0,-247.73663 z m -201.62897,0 0,247.73663 65.44097,0 0,-247.73663 z m -100.81445,0 0,247.73663 65.44095,0 0,-247.73663 z m -79.59041,-10.61729 0,3.53908 21.22412,0 0,-3.53908 z m -504.072384,0 0,3.53908 21.2241,0 0,-3.53908 z m 403.257934,0 0,3.53908 21.22407,0 0,-3.53908 z m 201.62894,0 0,3.53908 21.22412,0 0,-3.53908 z m 302.44344,0 0,3.53908 21.2241,0 0,-3.53908 z m -604.88687,0 0,3.53908 21.22407,0 0,-3.53908 z m 403.25792,0 0,3.53908 21.22405,0 0,-3.53908 z m -504.07236,0 0,3.53908 21.22406,0 0,-3.53908 z m -100.8145,0 0,3.53908 21.2241,0 0,-3.53908 z m 705.70131,0 0,3.53908 21.2241,0 0,-3.53908 z m -806.515814,-7.07821 0,3.5391 21.2241,0 0,-3.5391 z m 403.257934,0 0,3.5391 21.22407,0 0,-3.5391 z m 100.81445,0 0,3.5391 21.22412,0 0,-3.5391 z m -201.62894,0 0,3.5391 21.22407,0 0,-3.5391 z m 302.44343,0 0,3.5391 21.22412,0 0,-3.5391 z m -403.25787,0 0,3.5391 21.22406,0 0,-3.5391 z m 504.07236,0 0,3.5391 21.22405,0 0,-3.5391 z m -604.88686,0 0,3.5391 21.2241,0 0,-3.5391 z m 705.70131,0 0,3.5391 21.2241,0 0,-3.5391 z m 100.8145,0 0,3.5391 21.2241,0 0,-3.5391 z m 42.76663,-44.082919 -3.502,5.45017 0,6.48361 3.502,5.45023 5.8932,2.69324 6.4132,-0.9237 4.8958,-4.24339 1.8253,-6.21817 -1.8253,-6.2182 -4.8958,-4.24339 -6.4132,-0.9237 z m -328.30862,0 -3.50197,5.45017 0,6.48361 3.50197,5.45023 5.89323,2.69324 6.40969,-0.9237 4.89568,-4.24339 1.82529,-6.21817 -1.82529,-6.2182 -4.89568,-4.24339 -6.40969,-0.9237 z m -328.31066,0 -3.50197,5.45017 0,6.48361 3.50197,5.45023 5.89182,2.69324 6.41319,-0.9237 4.89571,-4.24339 1.82526,-6.21817 -1.82526,-6.2182 -4.89571,-4.24339 -6.41319,-0.9237 z m -328.310164,0 -3.5021,5.45017 0,6.48361 3.5021,5.45023 5.8925,2.69324 6.4117,-0.9237 4.8957,-4.24339 1.8249,-6.21817 -1.8249,-6.2182 -4.8957,-4.24339 -6.4117,-0.9237 z m 438.090434,-97.4809 0,3.5391 21.22407,0 0,-3.5391 z m 100.81445,0 0,3.5391 21.22412,0 0,-3.5391 z m -201.62894,0 0,3.5391 21.22407,0 0,-3.5391 z m 302.44343,0 0,3.5391 21.22412,0 0,-3.5391 z m -403.25787,0 0,3.5391 21.22406,0 0,-3.5391 z m 504.07236,0 0,3.5391 21.22405,0 0,-3.5391 z m -604.88686,0 0,3.5391 21.2241,0 0,-3.5391 z m 806.51581,0 0,3.5391 21.2241,0 0,-3.5391 z m -100.8145,0 0,3.5391 21.2241,0 0,-3.5391 z m -806.515814,0 0,3.5391 21.2241,0 0,-3.5391 z m 403.257934,-7.0781 0,3.5391 21.22407,0 0,-3.5391 z m 100.81445,0 0,3.5391 21.22412,0 0,-3.5391 z m 403.25793,0 0,3.5391 21.2241,0 0,-3.5391 z m -604.88687,0 0,3.5391 21.22407,0 0,-3.5391 z m 302.44343,0 0,3.5391 21.22412,0 0,-3.5391 z m -604.886874,0 0,3.5391 21.2241,0 0,-3.5391 z m 201.629004,0 0,3.5391 21.22406,0 0,-3.5391 z m 504.07236,0 0,3.5391 21.22405,0 0,-3.5391 z m 100.81445,0 0,3.5391 21.2241,0 0,-3.5391 z m -705.70131,0 0,3.5391 21.2241,0 0,-3.5391 z m 482.84829,-258.353971 0,247.736671 65.44095,0 0,-247.736671 z m 100.81445,0 0,247.736671 65.44097,0 0,-247.736671 z m 201.62897,0 0,247.736671 65.44103,0 0,-247.736671 z m -403.25791,0 0,247.736671 65.44099,0 0,-247.736671 z m 302.44341,0 0,247.736671 65.441,0 0,-247.736671 z m -806.515814,0 0,247.736671 65.441004,0 0,-247.736671 z m 201.629004,0 0,247.736671 65.44092,0 0,-247.736671 z m 201.62891,0 0,247.736671 65.44098,0 0,-247.736671 z m -302.44341,0 0,247.736671 65.441,0 0,-247.736671 z m 201.62892,0 0,247.736671 65.44099,0 0,-247.736671 z m 525.29649,-10.6173 0,3.5391 21.2241,0 0,-3.5391 z m -705.70131,0 0,3.5391 21.2241,0 0,-3.5391 z m 100.8145,0 0,3.5391 21.22406,0 0,-3.5391 z m 504.07236,0 0,3.5391 21.22405,0 0,-3.5391 z m -403.25792,0 0,3.5391 21.22407,0 0,-3.5391 z m 604.88687,0 0,3.5391 21.2241,0 0,-3.5391 z m -302.44344,0 0,3.5391 21.22412,0 0,-3.5391 z m -201.62894,0 0,3.5391 21.22407,0 0,-3.5391 z m -403.257934,0 0,3.5391 21.2241,0 0,-3.5391 z m 504.072384,0 0,3.5391 21.22412,0 0,-3.5391 z m -100.81445,-7.0782 0,3.5391 21.22407,0 0,-3.5391 z m 100.81445,0 0,3.5391 21.22412,0 0,-3.5391 z m -201.62894,0 0,3.5391 21.22407,0 0,-3.5391 z m -302.443444,0 0,3.5391 21.2241,0 0,-3.5391 z m 907.330314,0 0,3.5391 21.2241,0 0,-3.5391 z m -100.8145,0 0,3.5391 21.2241,0 0,-3.5391 z m -705.70131,0 0,3.5391 21.2241,0 0,-3.5391 z m 604.88686,0 0,3.5391 21.22405,0 0,-3.5391 z m -504.07236,0 0,3.5391 21.22406,0 0,-3.5391 z m 403.25787,0 0,3.5391 21.22412,0 0,-3.5391 z m 345.21007,-58.24 -3.502,5.4523 0,6.4808 3.502,5.4523 5.8932,2.6922 6.4132,-0.9223 4.8958,-4.244 1.8253,-6.2186 -1.8253,-6.2185 -4.8958,-4.2441 -6.4132,-0.9223 z m -328.30862,0 -3.50197,5.4523 0,6.4808 3.50197,5.4523 5.89323,2.6922 6.40969,-0.9223 4.89568,-4.244 1.82529,-6.2186 -1.82529,-6.2185 -4.89568,-4.2441 -6.40969,-0.9223 z m -328.31066,0 -3.50197,5.4523 0,6.4808 3.50197,5.4523 5.89182,2.6922 6.41319,-0.9223 4.89571,-4.244 1.82526,-6.2186 -1.82526,-6.2185 -4.89571,-4.2441 -6.41319,-0.9223 z m -328.310164,0 -3.5021,5.4523 0,6.4808 3.5021,5.4523 5.8925,2.6922 6.4117,-0.9223 4.8957,-4.244 1.8249,-6.2186 -1.8249,-6.2185 -4.8957,-4.2441 -6.4117,-0.9223 z"
     id="path6"
     inkscape:connector-curvature="0"
     style="fill:#d3d3d3;stroke:#000000;stroke-width:1.76911128" />
</svg>
