<?xml version="1.0" encoding="UTF-8" standalone="no"?>
<svg
   xmlns:dc="http://purl.org/dc/elements/1.1/"
   xmlns:cc="http://creativecommons.org/ns#"
   xmlns:rdf="http://www.w3.org/1999/02/22-rdf-syntax-ns#"
   xmlns:svg="http://www.w3.org/2000/svg"
   xmlns="http://www.w3.org/2000/svg"
   xmlns:sodipodi="http://sodipodi.sourceforge.net/DTD/sodipodi-0.dtd"
   xmlns:inkscape="http://www.inkscape.org/namespaces/inkscape"
   width="420mm"
   height="297mm"
   viewBox="0 -420 1488.189 1052.3622"
   version="1.1"
   id="svg2"
   inkscape:version="0.91 r13725"
   sodipodi:docname="A3-laser-battery-charger-landscape.svg">
  <metadata
     id="metadata12">
    <rdf:RDF>
      <cc:Work
         rdf:about="">
        <dc:format>image/svg+xml</dc:format>
        <dc:type
           rdf:resource="http://purl.org/dc/dcmitype/StillImage" />
        <dc:title>OpenSCAD Model</dc:title>
      </cc:Work>
    </rdf:RDF>
  </metadata>
  <defs
     id="defs10" />
  <sodipodi:namedview
     pagecolor="#ffffff"
     bordercolor="#666666"
     borderopacity="1"
     objecttolerance="10"
     gridtolerance="10"
     guidetolerance="10"
     inkscape:pageopacity="0"
     inkscape:pageshadow="2"
     inkscape:window-width="1445"
     inkscape:window-height="951"
     id="namedview8"
     showgrid="false"
     units="mm"
     inkscape:zoom="0.56190476"
     inkscape:cx="689.51695"
     inkscape:cy="565.9322"
     inkscape:window-x="0"
     inkscape:window-y="0"
     inkscape:window-maximized="0"
     inkscape:current-layer="svg2" />
  <title
     id="title4">OpenSCAD Model</title>
  <path
     d="m -743.20997,631.47765 0,-1050.5931 1486.41994,0 0,1050.5931 z m 65.3176,-1025.29063 -5.4502,-3.50215 -6.4836,0 -5.4502,3.50215 -2.6933,5.89249 0.9237,6.41167 4.2434,4.89571 6.2182,1.82491 6.2182,-1.82491 4.2433,-4.89571 0.9238,-6.41167 z m 0,328.310159 -5.4502,-3.50197 -6.4836,0 -5.4502,3.50197 -2.6933,5.89182 0.9237,6.41319 4.2434,4.89571 6.2182,1.82526 6.2182,-1.82526 4.2433,-4.89571 0.9238,-6.41319 z m 0,328.310661 -5.4502,-3.50197 -6.4836,0 -5.4502,3.50197 -2.6933,5.89323 0.9237,6.40969 4.2434,4.89568 6.2182,1.82529 6.2182,-1.82529 4.2433,-4.89568 0.9238,-6.40969 z m 0,328.30857 -5.4502,-3.50198 -6.4836,0 -5.4502,3.50198 -2.6933,5.89323 0.9237,6.41319 4.2434,4.89578 6.2182,1.82527 6.2182,-1.82527 4.2433,-4.89578 0.9238,-6.41319 z m 182.4191,-546.838963 -3.5391,0 0,21.224073 3.5391,0 z m 0,100.814453 -3.5391,0 0,21.22412 3.5391,0 z m 0,-201.628941 -3.5391,0 0,21.224073 3.5391,0 z m 0,302.443431 -3.5391,0 0,21.22412 3.5391,0 z m 0,-604.88687 -3.5391,0 0,21.22408 3.5391,0 z m 0,201.62895 -3.5391,0 0,21.22411 3.5391,0 z m 0,504.07241 -3.5391,0 0,21.22409 3.5391,0 z m 0,-604.8869 -3.5391,0 0,21.22411 3.5391,0 z m 0,806.51584 -3.5391,0 0,21.22412 3.5391,0 z m 0,-100.81445 -3.5391,0 0,21.22408 3.5391,0 z m 7.0782,-705.70139 -3.5391,0 0,21.22411 3.5391,0 z m 0,705.70139 -3.5391,0 0,21.22408 3.5391,0 z m 0,-100.81449 -3.5391,0 0,21.22409 3.5391,0 z m 0,-302.443433 -3.5391,0 0,21.224073 3.5391,0 z m 0,-201.628977 -3.5391,0 0,21.22411 3.5391,0 z m 0,-201.62895 -3.5391,0 0,21.22408 3.5391,0 z m 0,604.88687 -3.5391,0 0,21.22412 3.5391,0 z m 0,-302.443431 -3.5391,0 0,21.224073 3.5391,0 z m 0,201.628941 -3.5391,0 0,21.22412 3.5391,0 z m 0,403.25792 -3.5391,0 0,21.22412 3.5391,0 z m 258.35395,-626.110981 -247.73665,0 0,65.440986 247.73665,0 z m 0,-201.628939 -247.73665,0 0,65.44098 247.73665,0 z m 0,504.07241 -247.73665,0 0,65.44095 247.73665,0 z m 0,100.81445 -247.73665,0 0,65.44099 247.73665,0 z m 0,-302.443428 -247.73665,0 0,65.440981 247.73665,0 z m 0,-201.628942 -247.73665,0 0,65.44095 247.73665,0 z m 0,-201.62898 -247.73665,0 0,65.44099 247.73665,0 z m 0,806.51584 -247.73665,0 0,65.44099 247.73665,0 z m 0,100.81449 -247.73665,0 0,65.44099 247.73665,0 z m 0,-403.25792 -247.73665,0 0,65.44099 247.73665,0 z m 10.61727,21.22408 -3.53909,0 0,21.22412 3.53909,0 z m 0,-504.07238 -3.53909,0 0,21.22408 3.53909,0 z m 0,806.51585 -3.53909,0 0,21.22408 3.53909,0 z m 0,-705.70139 -3.53909,0 0,21.22411 3.53909,0 z m 0,302.443467 -3.53909,0 0,21.224073 3.53909,0 z m 0,201.628943 -3.53909,0 0,21.22412 3.53909,0 z m 0,302.44343 -3.53909,0 0,21.22412 3.53909,0 z m 0,-604.886861 -3.53909,0 0,21.224073 3.53909,0 z m 0,403.257921 -3.53909,0 0,21.22409 3.53909,0 z m 0,-504.07241 -3.53909,0 0,21.22411 3.53909,0 z m 7.07819,604.8869 -3.53908,0 0,21.22408 3.53908,0 z m 0,-705.70139 -3.53908,0 0,21.22411 3.53908,0 z m 0,604.8869 -3.53908,0 0,21.22409 3.53908,0 z m 0,-504.07241 -3.53908,0 0,21.22411 3.53908,0 z m 0,403.25792 -3.53908,0 0,21.22412 3.53908,0 z m 0,-302.443431 -3.53908,0 0,21.224073 3.53908,0 z m 0,201.628941 -3.53908,0 0,21.22412 3.53908,0 z m 0,-100.814453 -3.53908,0 0,21.224073 3.53908,0 z m 0,504.072373 -3.53908,0 0,21.22412 3.53908,0 z m 0,-907.3303 -3.53908,0 0,21.22408 3.53908,0 z m 44.08297,950.09689 -5.4502,-3.50198 -6.48362,0 -5.45021,3.50198 -2.69325,5.89323 0.9237,6.41319 4.24337,4.89578 6.21819,1.82527 6.2182,-1.82527 4.24337,-4.89578 0.92372,-6.41319 z m 0,-328.30857 -5.4502,-3.50197 -6.48362,0 -5.45021,3.50197 -2.69325,5.89323 0.9237,6.40969 4.24337,4.89568 6.21819,1.82529 6.2182,-1.82529 4.24337,-4.89568 0.92372,-6.40969 z m 0,-328.310661 -5.4502,-3.50197 -6.48362,0 -5.45021,3.50197 -2.69325,5.89182 0.9237,6.41319 4.24337,4.89571 6.21819,1.82526 6.2182,-1.82526 4.24337,-4.89571 0.92372,-6.41319 z m 0,-328.310159 -5.4502,-3.50215 -6.48362,0 -5.45021,3.50215 -2.69325,5.89249 0.9237,6.41167 4.24337,4.89571 6.21819,1.82491 6.2182,-1.82491 4.24337,-4.89571 0.92372,-6.41167 z m 97.480838,34.8325 -3.53909,0 0,21.22408 3.53909,0 z m 0,806.51585 -3.53909,0 0,21.22408 3.53909,0 z m 0,100.81445 -3.53909,0 0,21.22412 3.53909,0 z m 0,-806.51584 -3.53909,0 0,21.22411 3.53909,0 z m 0,604.8869 -3.53909,0 0,21.22409 3.53909,0 z m 0,-504.07241 -3.53909,0 0,21.22411 3.53909,0 z m 0,403.25792 -3.53909,0 0,21.22412 3.53909,0 z m 0,-302.443431 -3.53909,0 0,21.224073 3.53909,0 z m 0,201.628941 -3.53909,0 0,21.22412 3.53909,0 z m 0,-100.814453 -3.53909,0 0,21.224073 3.53909,0 z m 7.07818,-302.443467 -3.53909,0 0,21.22411 3.53909,0 z m 0,705.70139 -3.53909,0 0,21.22408 3.53909,0 z m 0,-100.81449 -3.53909,0 0,21.22409 3.53909,0 z m 0,-504.07241 -3.53909,0 0,21.22411 3.53909,0 z m 0,-201.62895 -3.53909,0 0,21.22408 3.53909,0 z m 0,604.88687 -3.53909,0 0,21.22412 3.53909,0 z m 0,-302.443431 -3.53909,0 0,21.224073 3.53909,0 z m 0,604.886861 -3.53909,0 0,21.22412 3.53909,0 z m 0,-403.25792 -3.53909,0 0,21.22412 3.53909,0 z m 0,-100.814453 -3.53909,0 0,21.224073 3.53909,0 z m 258.353922,-122.038608 -247.736622,0 0,65.440986 247.736622,0 z m 0,-201.628939 -247.736622,0 0,65.44098 247.736622,0 z m 0,302.443432 -247.736622,0 0,65.440981 247.736622,0 z m 0,-201.628942 -247.736622,0 0,65.44095 247.736622,0 z m 0,-201.62898 -247.736622,0 0,65.44099 247.736622,0 z m 0,806.51584 -247.736622,0 0,65.44099 247.736622,0 z m 0,-302.44343 -247.736622,0 0,65.44099 247.736622,0 z m 0,403.25792 -247.736622,0 0,65.44099 247.736622,0 z m 0,-201.62898 -247.736622,0 0,65.44099 247.736622,0 z m 0,-100.81445 -247.736622,0 0,65.44095 247.736622,0 z m 10.61729,-79.59041 -3.53908,0 0,21.22412 3.53908,0 z m 0,-504.07238 -3.53908,0 0,21.22408 3.53908,0 z m 0,403.257927 -3.53908,0 0,21.224073 3.53908,0 z m 0,201.628943 -3.53908,0 0,21.22412 3.53908,0 z m 0,302.44343 -3.53908,0 0,21.22412 3.53908,0 z m 0,-604.886861 -3.53908,0 0,21.224073 3.53908,0 z m 0,403.257921 -3.53908,0 0,21.22409 3.53908,0 z m 0,-504.07241 -3.53908,0 0,21.22411 3.53908,0 z m 0,-100.81449 -3.53908,0 0,21.22411 3.53908,0 z m 0,705.70139 -3.53908,0 0,21.22408 3.53908,0 z m 7.07821,-806.51585 -3.5391,0 0,21.22408 3.5391,0 z m 0,403.257927 -3.5391,0 0,21.224073 3.5391,0 z m 0,100.814453 -3.5391,0 0,21.22412 3.5391,0 z m 0,-201.628941 -3.5391,0 0,21.224073 3.5391,0 z m 0,302.443431 -3.5391,0 0,21.22412 3.5391,0 z m 0,-403.25792 -3.5391,0 0,21.22411 3.5391,0 z m 0,504.07241 -3.5391,0 0,21.22409 3.5391,0 z m 0,-604.8869 -3.5391,0 0,21.22411 3.5391,0 z m 0,705.70139 -3.5391,0 0,21.22408 3.5391,0 z m 0,100.81445 -3.5391,0 0,21.22412 3.5391,0 z m 44.08294,42.76659 -5.45019,-3.50198 -6.48361,0 -5.45023,3.50198 -2.69324,5.89323 0.9237,6.41319 4.24339,4.89578 6.21817,1.82527 6.2182,-1.82527 4.24337,-4.89578 0.92371,-6.41319 z m 0,-328.30857 -5.45019,-3.50197 -6.48361,0 -5.45023,3.50197 -2.69324,5.89323 0.9237,6.40969 4.24339,4.89568 6.21817,1.82529 6.2182,-1.82529 4.24337,-4.89568 0.92371,-6.40969 z m 0,-328.310661 -5.45019,-3.50197 -6.48361,0 -5.45023,3.50197 -2.69324,5.89182 0.9237,6.41319 4.24339,4.89571 6.21817,1.82526 6.2182,-1.82526 4.24337,-4.89571 0.92371,-6.41319 z m 0,-328.310159 -5.45019,-3.50215 -6.48361,0 -5.45023,3.50215 -2.69324,5.89249 0.9237,6.41167 4.24339,4.89571 6.21817,1.82491 6.2182,-1.82491 4.24337,-4.89571 0.92371,-6.41167 z m 97.48085,438.090427 -3.5391,0 0,21.224073 3.5391,0 z m 0,100.814453 -3.5391,0 0,21.22412 3.5391,0 z m 0,-201.628941 -3.5391,0 0,21.224073 3.5391,0 z m 0,302.443431 -3.5391,0 0,21.22412 3.5391,0 z m 0,-403.25792 -3.5391,0 0,21.22411 3.5391,0 z m 0,504.07241 -3.5391,0 0,21.22409 3.5391,0 z m 0,-604.8869 -3.5391,0 0,21.22411 3.5391,0 z m 0,806.51584 -3.5391,0 0,21.22412 3.5391,0 z m 0,-100.81445 -3.5391,0 0,21.22408 3.5391,0 z m 0,-806.51585 -3.5391,0 0,21.22408 3.5391,0 z m 7.07818,403.257927 -3.5391,0 0,21.224073 3.5391,0 z m 0,100.814453 -3.5391,0 0,21.22412 3.5391,0 z m 0,403.25792 -3.5391,0 0,21.22412 3.5391,0 z m 0,-604.886861 -3.5391,0 0,21.224073 3.5391,0 z m 0,302.443431 -3.5391,0 0,21.22412 3.5391,0 z m 0,-604.88687 -3.5391,0 0,21.22408 3.5391,0 z m 0,201.62895 -3.5391,0 0,21.22411 3.5391,0 z m 0,504.07241 -3.5391,0 0,21.22409 3.5391,0 z m 0,100.81449 -3.5391,0 0,21.22408 3.5391,0 z m 0,-705.70139 -3.5391,0 0,21.22411 3.5391,0 z m 258.35393,482.84833 -247.73663,0 0,65.44095 247.73663,0 z m 0,100.81445 -247.73663,0 0,65.44099 247.73663,0 z m 0,201.62898 -247.73663,0 0,65.44099 247.73663,0 z m 0,-403.25792 -247.73663,0 0,65.44099 247.73663,0 z m 0,302.44343 -247.73663,0 0,65.44099 247.73663,0 z m 0,-806.51584 -247.73663,0 0,65.44099 247.73663,0 z m 0,201.62898 -247.73663,0 0,65.44095 247.73663,0 z m 0,201.628942 -247.73663,0 0,65.440981 247.73663,0 z m 0,-302.443432 -247.73663,0 0,65.44098 247.73663,0 z m 0,201.628939 -247.73663,0 0,65.440986 247.73663,0 z m 10.61729,525.296531 -3.5391,0 0,21.22408 3.5391,0 z m 0,-705.70139 -3.5391,0 0,21.22411 3.5391,0 z m 0,100.81449 -3.5391,0 0,21.22411 3.5391,0 z m 0,504.07241 -3.5391,0 0,21.22409 3.5391,0 z m 0,-403.257921 -3.5391,0 0,21.224073 3.5391,0 z m 0,604.886861 -3.5391,0 0,21.22412 3.5391,0 z m 0,-302.44343 -3.5391,0 0,21.22412 3.5391,0 z m 0,-201.628943 -3.5391,0 0,21.224073 3.5391,0 z m 0,-403.257927 -3.5391,0 0,21.22408 3.5391,0 z m 0,504.07238 -3.5391,0 0,21.22412 3.5391,0 z m 7.07819,-100.814453 -3.5391,0 0,21.224073 3.5391,0 z m 0,100.814453 -3.5391,0 0,21.22412 3.5391,0 z m 0,-201.628941 -3.5391,0 0,21.224073 3.5391,0 z m 0,-302.443439 -3.5391,0 0,21.22408 3.5391,0 z m 0,907.3303 -3.5391,0 0,21.22412 3.5391,0 z m 0,-100.81445 -3.5391,0 0,21.22408 3.5391,0 z m 0,-705.70139 -3.5391,0 0,21.22411 3.5391,0 z m 0,604.8869 -3.5391,0 0,21.22409 3.5391,0 z m 0,-504.07241 -3.5391,0 0,21.22411 3.5391,0 z m 0,403.25792 -3.5391,0 0,21.22412 3.5391,0 z m 58.24005,345.21002 -5.45233,-3.50198 -6.48079,0 -5.45233,3.50198 -2.69219,5.89323 0.92229,6.41319 4.24408,4.89578 6.21854,1.82527 6.21855,-1.82527 4.24408,-4.89578 0.92229,-6.41319 z m 0,-328.30857 -5.45233,-3.50197 -6.48079,0 -5.45233,3.50197 -2.69219,5.89323 0.92229,6.40969 4.24408,4.89568 6.21854,1.82529 6.21855,-1.82529 4.24408,-4.89568 0.92229,-6.40969 z m 0,-328.310661 -5.45233,-3.50197 -6.48079,0 -5.45233,3.50197 -2.69219,5.89182 0.92229,6.41319 4.24408,4.89571 6.21854,1.82526 6.21855,-1.82526 4.24408,-4.89571 0.92229,-6.41319 z m 0,-328.310159 -5.45233,-3.50215 -6.48079,0 -5.45233,3.50215 -2.69219,5.89249 0.92229,6.41167 4.24408,4.89571 6.21854,1.82491 6.21855,-1.82491 4.24408,-4.89571 0.92229,-6.41167 z"
     id="path6"
     inkscape:connector-curvature="0"
     style="fill:#d3d3d3;stroke:#000000;stroke-width:1.76911128" />
</svg>
