<?xml version="1.0" standalone="no"?>
<!DOCTYPE svg PUBLIC "-//W3C//DTD SVG 1.1//EN" "http://www.w3.org/Graphics/SVG/1.1/DTD/svg11.dtd">
<svg width="297" height="420" viewBox="0 -420 297 420" xmlns="http://www.w3.org/2000/svg" version="1.1">
<title>OpenSCAD Model</title>
<path d="
M 297,-420 L 0,-420 L 0,-0 L 297,-0 z
M 7.15294,-401.544 L 6.16289,-403.084 L 6.16289,-404.916 L 7.15294,-406.456 L 8.81873,-407.217 L 10.6313,-406.956
 L 12.0153,-405.757 L 12.5312,-404 L 12.0153,-402.243 L 10.6313,-401.044 L 8.81873,-400.783 z
M 99.9654,-401.544 L 98.9754,-403.084 L 98.9754,-404.916 L 99.9654,-406.456 L 101.631,-407.217 L 103.444,-406.956
 L 104.828,-405.757 L 105.344,-404 L 104.828,-402.243 L 103.444,-401.044 L 101.631,-400.783 z
M 192.778,-401.544 L 191.788,-403.084 L 191.788,-404.916 L 192.778,-406.456 L 194.444,-407.217 L 196.256,-406.956
 L 197.64,-405.757 L 198.156,-404 L 197.64,-402.243 L 196.256,-401.044 L 194.444,-400.783 z
M 285.59,-401.544 L 284.6,-403.084 L 284.6,-404.916 L 285.59,-406.456 L 287.256,-407.217 L 289.069,-406.956
 L 290.453,-405.757 L 290.969,-404 L 290.453,-402.243 L 289.069,-401.044 L 287.256,-400.783 z
M 131,-350 L 131,-351 L 137,-351 L 137,-350 z
M 159.5,-350 L 159.5,-351 L 165.5,-351 L 165.5,-350 z
M 102.5,-350 L 102.5,-351 L 108.5,-351 L 108.5,-350 z
M 188,-350 L 188,-351 L 194,-351 L 194,-350 z
M 17,-350 L 17,-351 L 23,-351 L 23,-350 z
M 74,-350 L 74,-351 L 80,-351 L 80,-350 z
M 216.5,-350 L 216.5,-351 L 222.5,-351 L 222.5,-350 z
M 45.5,-350 L 45.5,-351 L 51.5,-351 L 51.5,-350 z
M 273.5,-350 L 273.5,-351 L 279.5,-351 L 279.5,-350 z
M 245,-350 L 245,-351 L 251,-351 L 251,-350 z
M 45.5,-348 L 45.5,-349 L 51.5,-349 L 51.5,-348 z
M 245,-348 L 245,-349 L 251,-349 L 251,-348 z
M 216.5,-348 L 216.5,-349 L 222.5,-349 L 222.5,-348 z
M 131,-348 L 131,-349 L 137,-349 L 137,-348 z
M 74,-348 L 74,-349 L 80,-349 L 80,-348 z
M 17,-348 L 17,-349 L 23,-349 L 23,-348 z
M 188,-348 L 188,-349 L 194,-349 L 194,-348 z
M 102.5,-348 L 102.5,-349 L 108.5,-349 L 108.5,-348 z
M 159.5,-348 L 159.5,-349 L 165.5,-349 L 165.5,-348 z
M 273.5,-348 L 273.5,-349 L 279.5,-349 L 279.5,-348 z
M 96.5,-275 L 96.5,-345 L 115,-345 L 115,-275 z
M 39.5,-275 L 39.5,-345 L 58,-345 L 58,-275 z
M 182,-275 L 182,-345 L 200.5,-345 L 200.5,-275 z
M 210.5,-275 L 210.5,-345 L 229,-345 L 229,-275 z
M 125,-275 L 125,-345 L 143.5,-345 L 143.5,-275 z
M 68,-275 L 68,-345 L 86.5,-345 L 86.5,-275 z
M 11,-275 L 11,-345 L 29.5,-345 L 29.5,-275 z
M 239,-275 L 239,-345 L 257.5,-345 L 257.5,-275 z
M 267.5,-275 L 267.5,-345 L 286,-345 L 286,-275 z
M 153.5,-275 L 153.5,-345 L 172,-345 L 172,-275 z
M 159.5,-272 L 159.5,-273 L 165.5,-273 L 165.5,-272 z
M 17,-272 L 17,-273 L 23,-273 L 23,-272 z
M 245,-272 L 245,-273 L 251,-273 L 251,-272 z
M 45.5,-272 L 45.5,-273 L 51.5,-273 L 51.5,-272 z
M 131,-272 L 131,-273 L 137,-273 L 137,-272 z
M 188,-272 L 188,-273 L 194,-273 L 194,-272 z
M 273.5,-272 L 273.5,-273 L 279.5,-273 L 279.5,-272 z
M 102.5,-272 L 102.5,-273 L 108.5,-273 L 108.5,-272 z
M 216.5,-272 L 216.5,-273 L 222.5,-273 L 222.5,-272 z
M 74,-272 L 74,-273 L 80,-273 L 80,-272 z
M 245,-270 L 245,-271 L 251,-271 L 251,-270 z
M 45.5,-270 L 45.5,-271 L 51.5,-271 L 51.5,-270 z
M 216.5,-270 L 216.5,-271 L 222.5,-271 L 222.5,-270 z
M 74,-270 L 74,-271 L 80,-271 L 80,-270 z
M 188,-270 L 188,-271 L 194,-271 L 194,-270 z
M 102.5,-270 L 102.5,-271 L 108.5,-271 L 108.5,-270 z
M 159.5,-270 L 159.5,-271 L 165.5,-271 L 165.5,-270 z
M 131,-270 L 131,-271 L 137,-271 L 137,-270 z
M 273.5,-270 L 273.5,-271 L 279.5,-271 L 279.5,-270 z
M 17,-270 L 17,-271 L 23,-271 L 23,-270 z
M 285.59,-257.544 L 284.6,-259.084 L 284.6,-260.916 L 285.59,-262.456 L 287.256,-263.217 L 289.069,-262.956
 L 290.453,-261.757 L 290.969,-260 L 290.453,-258.243 L 289.069,-257.044 L 287.256,-256.783 z
M 192.778,-257.544 L 191.788,-259.084 L 191.788,-260.916 L 192.778,-262.456 L 194.444,-263.217 L 196.256,-262.956
 L 197.64,-261.757 L 198.156,-260 L 197.64,-258.243 L 196.256,-257.044 L 194.444,-256.783 z
M 99.9654,-257.544 L 98.9754,-259.084 L 98.9754,-260.916 L 99.9654,-262.456 L 101.631,-263.217 L 103.444,-262.956
 L 104.828,-261.757 L 105.344,-260 L 104.828,-258.243 L 103.444,-257.044 L 101.631,-256.783 z
M 7.15294,-257.544 L 6.16289,-259.084 L 6.16289,-260.916 L 7.15294,-262.456 L 8.81873,-263.217 L 10.6313,-262.956
 L 12.0153,-261.757 L 12.5312,-260 L 12.0153,-258.243 L 10.6313,-257.044 L 8.81873,-256.783 z
M 17,-230 L 17,-231 L 23,-231 L 23,-230 z
M 245,-230 L 245,-231 L 251,-231 L 251,-230 z
M 273.5,-230 L 273.5,-231 L 279.5,-231 L 279.5,-230 z
M 45.5,-230 L 45.5,-231 L 51.5,-231 L 51.5,-230 z
M 216.5,-230 L 216.5,-231 L 222.5,-231 L 222.5,-230 z
M 74,-230 L 74,-231 L 80,-231 L 80,-230 z
M 188,-230 L 188,-231 L 194,-231 L 194,-230 z
M 102.5,-230 L 102.5,-231 L 108.5,-231 L 108.5,-230 z
M 159.5,-230 L 159.5,-231 L 165.5,-231 L 165.5,-230 z
M 131,-230 L 131,-231 L 137,-231 L 137,-230 z
M 45.5,-228 L 45.5,-229 L 51.5,-229 L 51.5,-228 z
M 245,-228 L 245,-229 L 251,-229 L 251,-228 z
M 216.5,-228 L 216.5,-229 L 222.5,-229 L 222.5,-228 z
M 74,-228 L 74,-229 L 80,-229 L 80,-228 z
M 17,-228 L 17,-229 L 23,-229 L 23,-228 z
M 188,-228 L 188,-229 L 194,-229 L 194,-228 z
M 102.5,-228 L 102.5,-229 L 108.5,-229 L 108.5,-228 z
M 273.5,-228 L 273.5,-229 L 279.5,-229 L 279.5,-228 z
M 159.5,-228 L 159.5,-229 L 165.5,-229 L 165.5,-228 z
M 131,-228 L 131,-229 L 137,-229 L 137,-228 z
M 96.5,-155 L 96.5,-225 L 115,-225 L 115,-155 z
M 39.5,-155 L 39.5,-225 L 58,-225 L 58,-155 z
M 125,-155 L 125,-225 L 143.5,-225 L 143.5,-155 z
M 68,-155 L 68,-225 L 86.5,-225 L 86.5,-155 z
M 11,-155 L 11,-225 L 29.5,-225 L 29.5,-155 z
M 239,-155 L 239,-225 L 257.5,-225 L 257.5,-155 z
M 153.5,-155 L 153.5,-225 L 172,-225 L 172,-155 z
M 267.5,-155 L 267.5,-225 L 286,-225 L 286,-155 z
M 210.5,-155 L 210.5,-225 L 229,-225 L 229,-155 z
M 182,-155 L 182,-225 L 200.5,-225 L 200.5,-155 z
M 159.5,-152 L 159.5,-153 L 165.5,-153 L 165.5,-152 z
M 17,-152 L 17,-153 L 23,-153 L 23,-152 z
M 131,-152 L 131,-153 L 137,-153 L 137,-152 z
M 188,-152 L 188,-153 L 194,-153 L 194,-152 z
M 273.5,-152 L 273.5,-153 L 279.5,-153 L 279.5,-152 z
M 102.5,-152 L 102.5,-153 L 108.5,-153 L 108.5,-152 z
M 216.5,-152 L 216.5,-153 L 222.5,-153 L 222.5,-152 z
M 74,-152 L 74,-153 L 80,-153 L 80,-152 z
M 45.5,-152 L 45.5,-153 L 51.5,-153 L 51.5,-152 z
M 245,-152 L 245,-153 L 251,-153 L 251,-152 z
M 17,-150 L 17,-151 L 23,-151 L 23,-150 z
M 131,-150 L 131,-151 L 137,-151 L 137,-150 z
M 159.5,-150 L 159.5,-151 L 165.5,-151 L 165.5,-150 z
M 102.5,-150 L 102.5,-151 L 108.5,-151 L 108.5,-150 z
M 188,-150 L 188,-151 L 194,-151 L 194,-150 z
M 74,-150 L 74,-151 L 80,-151 L 80,-150 z
M 216.5,-150 L 216.5,-151 L 222.5,-151 L 222.5,-150 z
M 45.5,-150 L 45.5,-151 L 51.5,-151 L 51.5,-150 z
M 245,-150 L 245,-151 L 251,-151 L 251,-150 z
M 273.5,-150 L 273.5,-151 L 279.5,-151 L 279.5,-150 z
M 285.59,-137.544 L 284.6,-139.084 L 284.6,-140.916 L 285.59,-142.456 L 287.256,-143.217 L 289.069,-142.956
 L 290.453,-141.757 L 290.969,-140 L 290.453,-138.243 L 289.069,-137.044 L 287.256,-136.783 z
M 192.778,-137.544 L 191.788,-139.084 L 191.788,-140.916 L 192.778,-142.456 L 194.444,-143.217 L 196.256,-142.956
 L 197.64,-141.757 L 198.156,-140 L 197.64,-138.243 L 196.256,-137.044 L 194.444,-136.783 z
M 99.9654,-137.544 L 98.9754,-139.084 L 98.9754,-140.916 L 99.9654,-142.456 L 101.631,-143.217 L 103.444,-142.956
 L 104.828,-141.757 L 105.344,-140 L 104.828,-138.243 L 103.444,-137.044 L 101.631,-136.783 z
M 7.15294,-137.544 L 6.16289,-139.084 L 6.16289,-140.916 L 7.15294,-142.456 L 8.81873,-143.217 L 10.6313,-142.956
 L 12.0153,-141.757 L 12.5312,-140 L 12.0153,-138.243 L 10.6313,-137.044 L 8.81873,-136.783 z
M 131,-110 L 131,-111 L 137,-111 L 137,-110 z
M 159.5,-110 L 159.5,-111 L 165.5,-111 L 165.5,-110 z
M 102.5,-110 L 102.5,-111 L 108.5,-111 L 108.5,-110 z
M 188,-110 L 188,-111 L 194,-111 L 194,-110 z
M 74,-110 L 74,-111 L 80,-111 L 80,-110 z
M 216.5,-110 L 216.5,-111 L 222.5,-111 L 222.5,-110 z
M 45.5,-110 L 45.5,-111 L 51.5,-111 L 51.5,-110 z
M 273.5,-110 L 273.5,-111 L 279.5,-111 L 279.5,-110 z
M 245,-110 L 245,-111 L 251,-111 L 251,-110 z
M 17,-110 L 17,-111 L 23,-111 L 23,-110 z
M 131,-108 L 131,-109 L 137,-109 L 137,-108 z
M 159.5,-108 L 159.5,-109 L 165.5,-109 L 165.5,-108 z
M 273.5,-108 L 273.5,-109 L 279.5,-109 L 279.5,-108 z
M 102.5,-108 L 102.5,-109 L 108.5,-109 L 108.5,-108 z
M 188,-108 L 188,-109 L 194,-109 L 194,-108 z
M 17,-108 L 17,-109 L 23,-109 L 23,-108 z
M 74,-108 L 74,-109 L 80,-109 L 80,-108 z
M 216.5,-108 L 216.5,-109 L 222.5,-109 L 222.5,-108 z
M 245,-108 L 245,-109 L 251,-109 L 251,-108 z
M 45.5,-108 L 45.5,-109 L 51.5,-109 L 51.5,-108 z
M 182,-35 L 182,-105 L 200.5,-105 L 200.5,-35 z
M 210.5,-35 L 210.5,-105 L 229,-105 L 229,-35 z
M 267.5,-35 L 267.5,-105 L 286,-105 L 286,-35 z
M 153.5,-35 L 153.5,-105 L 172,-105 L 172,-35 z
M 239,-35 L 239,-105 L 257.5,-105 L 257.5,-35 z
M 11,-35 L 11,-105 L 29.5,-105 L 29.5,-35 z
M 68,-35 L 68,-105 L 86.5,-105 L 86.5,-35 z
M 125,-35 L 125,-105 L 143.5,-105 L 143.5,-35 z
M 39.5,-35 L 39.5,-105 L 58,-105 L 58,-35 z
M 96.5,-35 L 96.5,-105 L 115,-105 L 115,-35 z
M 245,-32 L 245,-33 L 251,-33 L 251,-32 z
M 45.5,-32 L 45.5,-33 L 51.5,-33 L 51.5,-32 z
M 74,-32 L 74,-33 L 80,-33 L 80,-32 z
M 216.5,-32 L 216.5,-33 L 222.5,-33 L 222.5,-32 z
M 102.5,-32 L 102.5,-33 L 108.5,-33 L 108.5,-32 z
M 273.5,-32 L 273.5,-33 L 279.5,-33 L 279.5,-32 z
M 188,-32 L 188,-33 L 194,-33 L 194,-32 z
M 131,-32 L 131,-33 L 137,-33 L 137,-32 z
M 17,-32 L 17,-33 L 23,-33 L 23,-32 z
M 159.5,-32 L 159.5,-33 L 165.5,-33 L 165.5,-32 z
M 131,-30 L 131,-31 L 137,-31 L 137,-30 z
M 159.5,-30 L 159.5,-31 L 165.5,-31 L 165.5,-30 z
M 102.5,-30 L 102.5,-31 L 108.5,-31 L 108.5,-30 z
M 17,-30 L 17,-31 L 23,-31 L 23,-30 z
M 273.5,-30 L 273.5,-31 L 279.5,-31 L 279.5,-30 z
M 245,-30 L 245,-31 L 251,-31 L 251,-30 z
M 45.5,-30 L 45.5,-31 L 51.5,-31 L 51.5,-30 z
M 216.5,-30 L 216.5,-31 L 222.5,-31 L 222.5,-30 z
M 74,-30 L 74,-31 L 80,-31 L 80,-30 z
M 188,-30 L 188,-31 L 194,-31 L 194,-30 z
M 285.59,-13.5438 L 284.6,-15.0844 L 284.6,-16.9156 L 285.59,-18.4562 L 287.256,-19.2169 L 289.069,-18.9563
 L 290.453,-17.7571 L 290.969,-16 L 290.453,-14.2429 L 289.069,-13.0437 L 287.256,-12.7831 z
M 192.778,-13.5438 L 191.788,-15.0844 L 191.788,-16.9156 L 192.778,-18.4562 L 194.444,-19.2169 L 196.256,-18.9563
 L 197.64,-17.7571 L 198.156,-16 L 197.64,-14.2429 L 196.256,-13.0437 L 194.444,-12.7831 z
M 99.9654,-13.5438 L 98.9754,-15.0844 L 98.9754,-16.9156 L 99.9654,-18.4562 L 101.631,-19.2169 L 103.444,-18.9563
 L 104.828,-17.7571 L 105.344,-16 L 104.828,-14.2429 L 103.444,-13.0437 L 101.631,-12.7831 z
M 7.15294,-13.5438 L 6.16289,-15.0844 L 6.16289,-16.9156 L 7.15294,-18.4562 L 8.81873,-19.2169 L 10.6313,-18.9563
 L 12.0153,-17.7571 L 12.5312,-16 L 12.0153,-14.2429 L 10.6313,-13.0437 L 8.81873,-12.7831 z
" stroke="black" fill="lightgray" stroke-width="0.5"/></svg>
